<svg width="170" height="252" viewBox="0 0 170 252" fill="none" xmlns="http://www.w3.org/2000/svg">
<path d="M81.8805 95.1104C77.7574 110.379 72.2538 116.448 55.7626 121.998H4.24231C-0.140064 125.155 -0.0210637 126.999 4.24231 130.146H55.7626C66.7489 131.18 72.5215 136.158 81.8805 152.145V247.881C84.658 251.993 86.2502 252.086 89.0361 247.881V152.145C94.3733 137.671 98.8914 131.645 113.723 130.146H167.032C170.11 126.889 169.159 125.244 167.032 121.998H113.723C97.7043 116.015 92.296 110.13 89.0361 95.1104V4.26275C86.5608 0.222845 85.0539 -0.387326 81.8805 4.26275V95.1104Z" fill="#F88E04" stroke="#F88E04"/>
</svg>
