<svg width="805" height="314" viewBox="0 0 805 314" fill="none" xmlns="http://www.w3.org/2000/svg">
<g clip-path="url(#clip0_443_179)" filter="url(#filter0_b_443_179)">
<g filter="url(#filter1_b_443_179)">
<path d="M214.831 0L232.734 17.7865H573.501L583.995 0H415.464L404.969 9.88139L393.24 0.65876L214.831 0Z" fill="#6D4CBD"/>
<path d="M212.362 312.911L232.734 298.418H573.501L588.317 313.57H411.76L398.796 305.664L388.919 313.57L212.362 312.911Z" fill="#6D4CBD"/>
<path d="M9.8773 81.6862V235.836L0 242.424V287.219L25.9279 310.276H187.051L224.091 287.219H583.995L620.418 310.276H779.072L803.148 287.219V242.424L796.975 235.836V81.6862L805 76.4161V26.3504L779.072 5.27008H620.418L583.995 26.3504H224.091L193.225 5.27008H25.9279L0 26.3504V76.4161L9.8773 81.6862Z" fill="#4D4D4D" fill-opacity="0.1"/>
<path d="M214.831 0L232.734 17.7865H573.501L583.995 0H415.464L404.969 9.88139L393.24 0.65876L214.831 0Z" stroke="#6D4CBD" stroke-width="3.08429"/>
<path d="M212.362 312.911L232.734 298.418H573.501L588.317 313.57H411.76L398.796 305.664L388.919 313.57L212.362 312.911Z" stroke="#6D4CBD" stroke-width="3.08429"/>
<path d="M9.8773 81.6862V235.836L0 242.424V287.219L25.9279 310.276H187.051L224.091 287.219H583.995L620.418 310.276H779.072L803.148 287.219V242.424L796.975 235.836V81.6862L805 76.4161V26.3504L779.072 5.27008H620.418L583.995 26.3504H224.091L193.225 5.27008H25.9279L0 26.3504V76.4161L9.8773 81.6862Z" stroke="#6D4CBD" stroke-width="3.08429"/>
</g>
<path d="M222.801 84.4484V80.6979H218.984V76.8816V73.0653V69.3148V65.4985V61.6822V57.8659V54.1154H222.801V50.2991H226.551V46.4828H230.367H234.184H237.934H241.751H245.567H249.383V50.2991H253.134V54.1154H256.95V57.8659V61.6822H253.134H249.383H245.567V57.8659V54.1154H241.751H237.934H234.184H230.367V57.8659V61.6822V65.4985V69.3148V73.0653V76.8816V80.6979H234.184H237.934H241.751H245.567V76.8816V73.0653H249.383H253.134H256.95V76.8816V80.6979H253.134V84.4484H249.383V88.2646H245.567H241.751H237.934H234.184H230.367H226.551V84.4484H222.801ZM271.62 80.6321V84.4484H275.436H279.187H283.003V80.6321V76.8816V73.0653V69.249V65.4985V61.6822H279.187H275.436H271.62V65.4985V69.249V73.0653V76.8816V80.6321ZM271.62 88.2646H267.804V84.4484H264.053V80.6321H260.237V76.8816V73.0653V69.249V65.4985H264.053V61.6822H267.804V57.8659H271.62H275.436H279.187H283.003H286.819V61.6822H290.636V65.4985H294.386V69.249V73.0653V76.8816V80.6321H290.636V84.4484H286.819V88.2646H283.003H279.187H275.436H271.62ZM324.346 57.9317H328.163H331.913V61.6822V65.4985V69.3148V73.0653V76.8816V80.6979H328.163V84.4484H324.346V88.2646H320.53H316.714H312.963H309.147H305.331V84.4484H301.58V80.6979H297.764V76.8816V73.0653V69.3148V65.4985V61.6822V57.9317H301.58H305.331H309.147V61.6822V65.4985V69.3148V73.0653V76.8816V80.6979V84.4484H312.963H316.714H320.53V80.6979V76.8816V73.0653V69.3148V65.4985V61.6822V57.9317H324.346ZM369.374 61.6822V65.4985H373.191V69.249V73.0653V76.8816V80.6321V84.4484V88.2646H369.374H365.558H361.808V84.4484V80.6321V76.8816V73.0653V69.249V65.4985V61.6822H357.991H354.175H350.425V65.4985V69.249V73.0653V76.8816V80.6321V84.4484V88.2646H346.608H342.792H339.041V84.4484V80.6321V76.8816V73.0653V69.249V65.4985V61.6822H335.225V57.8659H339.041H342.792H346.608H350.425H354.175H357.991H361.808H365.558V61.6822H369.374ZM399.244 76.8816H403.06H406.876V80.6979V84.4484H403.06V88.2646H399.244H395.427H391.677H387.861H384.044H380.294V84.4484H376.478V80.6979V76.8816V73.0653V69.3148V65.4985V61.6822V57.9317H380.294V54.1154H384.044V50.2991H387.861V54.1154V57.9317H391.677H395.427H399.244V61.6822H395.427H391.677H387.861V65.4985V69.3148V73.0653V76.8816V80.6979V84.4484H391.677H395.427H399.244V80.6979V76.8816ZM429.098 84.4484H432.914V80.6979V76.8816V73.0653V69.249V65.4985V61.6822H429.098H425.347H421.531V65.4985V69.249V73.0653V76.8816V80.6979V84.4484H425.347H429.098ZM436.73 42.7323H440.546H444.297V46.4828V50.2991V54.1154V57.8659V61.6822V65.4985V69.249V73.0653V76.8816V80.6979V84.4484V88.2646H440.546H436.73H432.914H429.098H425.347H421.531H417.715V84.4484H413.964V80.6979H410.148V76.8816V73.0653V69.249V65.4985H413.964V61.6822H417.715V57.8659H421.531H425.347H429.098H432.914V54.1154V50.2991V46.4828V42.7323H436.73ZM458.926 80.6321V84.4484H462.743H466.493H470.309V80.6321V76.8816V73.0653V69.249V65.4985V61.6822H466.493H462.743H458.926V65.4985V69.249V73.0653V76.8816V80.6321ZM458.926 88.2646H455.11V84.4484H451.359V80.6321H447.543V76.8816V73.0653V69.249V65.4985H451.359V61.6822H455.11V57.8659H458.926H462.743H466.493H470.309H474.126V61.6822H477.942V65.4985H481.692V69.249V73.0653V76.8816V80.6321H477.942V84.4484H474.126V88.2646H470.309H466.493H462.743H458.926ZM534.419 61.6822V65.4985H530.603V69.3148V73.0653H526.852V76.8816V80.6979H523.036V84.4484H519.22V88.2646H515.469V84.4484H511.653V80.6979H507.836V84.4484H504.02V88.2646H500.27V84.4484H496.453V80.6979H492.637V76.8816V73.0653H488.887V69.3148V65.4985H485.07V61.6822V57.9317H488.887H492.637H496.453V61.6822V65.4985V69.3148V73.0653V76.8816H500.27V80.6979H504.02V76.8816H507.836V73.0653V69.3148V65.4985H511.653V69.3148V73.0653V76.8816H515.469V80.6979H519.22V76.8816H523.036V73.0653V69.3148V65.4985V61.6822V57.9317H526.852H530.603H534.419V61.6822ZM571.845 61.6822V65.4985H575.662V69.249V73.0653V76.8816V80.6321V84.4484V88.2646H571.845H568.029H564.278V84.4484V80.6321V76.8816V73.0653V69.249V65.4985V61.6822H560.462H556.646H552.895V65.4985V69.249V73.0653V76.8816V80.6321V84.4484V88.2646H549.079H545.263H541.512V84.4484V80.6321V76.8816V73.0653V69.249V65.4985V61.6822H537.696V57.8659H541.512H545.263H549.079H552.895H556.646H560.462H564.278H568.029V61.6822H571.845Z" fill="white"/>
</g>
<defs>
<filter id="filter0_b_443_179" x="-100" y="-100" width="1005" height="513.569" filterUnits="userSpaceOnUse" color-interpolation-filters="sRGB">
<feFlood flood-opacity="0" result="BackgroundImageFix"/>
<feGaussianBlur in="BackgroundImageFix" stdDeviation="50"/>
<feComposite in2="SourceAlpha" operator="in" result="effect1_backgroundBlur_443_179"/>
<feBlend mode="normal" in="SourceGraphic" in2="effect1_backgroundBlur_443_179" result="shape"/>
</filter>
<filter id="filter1_b_443_179" x="-71.542" y="-71.5557" width="948.084" height="456.669" filterUnits="userSpaceOnUse" color-interpolation-filters="sRGB">
<feFlood flood-opacity="0" result="BackgroundImageFix"/>
<feGaussianBlur in="BackgroundImageFix" stdDeviation="35"/>
<feComposite in2="SourceAlpha" operator="in" result="effect1_backgroundBlur_443_179"/>
<feBlend mode="normal" in="SourceGraphic" in2="effect1_backgroundBlur_443_179" result="shape"/>
</filter>
<clipPath id="clip0_443_179">
<rect width="805" height="313.57" fill="white"/>
</clipPath>
</defs>
</svg>
