<svg width="821" height="464" viewBox="0 0 821 464" fill="none" xmlns="http://www.w3.org/2000/svg">
<g filter="url(#filter0_b_490_138)">
<g opacity="0.9" filter="url(#filter1_b_490_138)">
<path d="M806.442 312.113L819.501 304.137V175.975V24.9635L800.296 1.0343H247.198L206.484 77.6076H0.999817V175.975V462.069H819.501V426.973L806.442 417.402V312.113Z" fill="#4D4D4D" fill-opacity="0.1"/>
<path d="M806.442 312.113L819.501 304.137V175.975V24.9635L800.296 1.0343H247.198L206.484 77.6076H0.999817V175.975V462.069H819.501V426.973L806.442 417.402V312.113Z" stroke="#5B409B" stroke-opacity="0.4" stroke-width="2"/>
</g>
<path d="M227.219 1.03418L192.07 65.4103H168.987L201.513 1.03418H227.219Z" fill="#6D4CBD"/>
<path d="M181.053 1.03418L153.249 65.4103H130.166L159.544 1.03418H181.053Z" fill="#6D4CBD"/>
<path d="M140.659 1.03418L113.379 65.4103H92.9192L121.248 1.03418H140.659Z" fill="#6D4CBD" fill-opacity="0.7"/>
<path d="M105.51 1.03418L76.1318 65.4103H55.1475L86.6239 1.03418H105.51Z" fill="#6D4CBD" fill-opacity="0.5"/>
<path d="M37.8354 65.4103H19.4742L55.1475 1.03418H71.9349L37.8354 65.4103Z" fill="#6D4CBD" fill-opacity="0.3"/>
<path d="M227.219 1.03418L192.07 65.4103H168.987L201.513 1.03418H227.219Z" stroke="#6D4CBD" stroke-opacity="0.3" stroke-width="1.67954"/>
<path d="M181.053 1.03418L153.249 65.4103H130.166L159.544 1.03418H181.053Z" stroke="#6D4CBD" stroke-opacity="0.3" stroke-width="1.67954"/>
<path d="M140.659 1.03418L113.379 65.4103H92.9192L121.248 1.03418H140.659Z" stroke="#6D4CBD" stroke-opacity="0.3" stroke-width="1.67954"/>
<path d="M105.51 1.03418L76.1318 65.4103H55.1475L86.6239 1.03418H105.51Z" stroke="#6D4CBD" stroke-opacity="0.3" stroke-width="1.67954"/>
<path d="M37.8354 65.4103H19.4742L55.1475 1.03418H71.9349L37.8354 65.4103Z" stroke="#6D4CBD" stroke-opacity="0.3" stroke-width="1.67954"/>
</g>
<defs>
<filter id="filter0_b_490_138" x="-20" y="-19.9658" width="860.501" height="503.035" filterUnits="userSpaceOnUse" color-interpolation-filters="sRGB">
<feFlood flood-opacity="0" result="BackgroundImageFix"/>
<feGaussianBlur in="BackgroundImageFix" stdDeviation="10"/>
<feComposite in2="SourceAlpha" operator="in" result="effect1_backgroundBlur_490_138"/>
<feBlend mode="normal" in="SourceGraphic" in2="effect1_backgroundBlur_490_138" result="shape"/>
</filter>
<filter id="filter1_b_490_138" x="-67.1817" y="-67.1475" width="954.864" height="597.399" filterUnits="userSpaceOnUse" color-interpolation-filters="sRGB">
<feFlood flood-opacity="0" result="BackgroundImageFix"/>
<feGaussianBlur in="BackgroundImageFix" stdDeviation="33.5908"/>
<feComposite in2="SourceAlpha" operator="in" result="effect1_backgroundBlur_490_138"/>
<feBlend mode="normal" in="SourceGraphic" in2="effect1_backgroundBlur_490_138" result="shape"/>
</filter>
</defs>
</svg>
